<mxfile host="app.diagrams.net" modified="2023-09-20T15:43:06.727Z" agent="Mozilla/5.0 (Macintosh; Intel Mac OS X 10_15_7) AppleWebKit/605.1.15 (KHTML, like Gecko) Version/15.6.1 Safari/605.1.15" version="21.7.5" etag="5ZS3J3PT7t4OsFgmZEQc" type="github">
  <diagram name="Page-1" id="iy3m4itwZM2e1sFLJpB6">
    <mxGraphModel>
      <root>
        <mxCell id="0" />
        <mxCell id="1" parent="0" />
      </root>
    </mxGraphModel>
  </diagram>
</mxfile>
